Coordinates
version=1
nRows=16
nColumns=40
inDegrees=yes

Units are S.I. units (second, meters, Newtons, ...)
Angles are in degrees.

endheader
time	pelvis_tilt	pelvis_list	pelvis_rotation	pelvis_tx	pelvis_ty	pelvis_tz	hip_flexion_r	hip_adduction_r	hip_rotation_r	knee_angle_r	knee_angle_r_beta	ankle_angle_r	subtalar_angle_r	mtp_angle_r	hip_flexion_l	hip_adduction_l	hip_rotation_l	knee_angle_l	knee_angle_l_beta	ankle_angle_l	subtalar_angle_l	mtp_angle_l	lumbar_extension	lumbar_bending	lumbar_rotation	arm_flex_r	arm_add_r	arm_rot_r	elbow_flex_r	pro_sup_r	wrist_flex_r	wrist_dev_r	arm_flex_l	arm_add_l	arm_rot_l	elbow_flex_l	pro_sup_l	wrist_flex_l	wrist_dev_l
     14.16000000	     -4.33250891	     -4.67917691	      2.30619744	      1.08218949	      0.91307675	      0.46216136	     -1.02252117	     -1.43523609	    -12.36539282	     27.96674389	     27.96674389	     15.66486006	     -2.85528354	    -11.94834759	     30.75824499	     -6.48604652	     -4.91445003	     28.59641569	     28.59641569	      6.08175626	    -17.54066330	      7.59721872	     -8.38976678	      5.46004547	      4.15901718	     43.07555279	    -15.78194729	     -1.94779169	    119.27286374	     43.65458107	      0.00000000	      0.00000000	    -16.03205592	     -6.45999486	      7.76443916	     23.06351113	     45.05883172	      0.00000000	      0.00000000
     14.17142857	     -4.30510994	     -4.56949391	      2.15989662	      1.08250872	      0.91452256	      0.45919133	      0.56765724	     -2.04974951	    -11.48661305	     31.67630897	     31.67630897	     12.58378016	     -6.50486237	    -16.12325601	     30.00598628	     -6.28313450	     -5.14621752	     28.66278487	     28.66278487	      6.88875060	    -17.50625258	      7.39230236	     -8.43778188	      5.43179670	      4.31007136	     40.96296239	    -16.26756849	     -2.36134805	    120.53478680	     43.68984902	      0.00000000	      0.00000000	    -14.54631245	     -6.43115463	      7.58433369	     23.05723674	     45.16468928	      0.00000000	      0.00000000
     14.18285714	     -4.15390746	     -4.28408022	      2.01316338	      1.08275755	      0.91613099	      0.45608268	      2.31295626	     -3.12510551	    -11.28654058	     36.03807960	     36.03807960	     10.70425898	     -8.01840381	    -16.56690288	     29.03040634	     -5.92104821	     -5.56724335	     28.60327449	     28.60327449	      7.58367836	    -17.32506389	      7.02527098	     -8.61061509	      5.22683993	      3.74983503	     39.21382089	    -15.96629339	     -2.06909660	    120.37800461	     43.68540849	      0.00000000	      0.00000000	    -13.40254183	     -6.37670017	      7.56107988	     23.42168886	     45.19515771	      0.00000000	      0.00000000
     14.19428571	     -4.19673719	     -4.20580410	      1.86549679	      1.08276235	      0.91738868	      0.45335268	      4.45440970	     -3.70525152	    -10.54041108	     40.39649106	     40.39649106	      8.17977453	    -10.98941128	    -16.99167703	     28.24928949	     -5.75819599	     -5.87034268	     28.42056038	     28.42056038	      8.14806218	    -17.17136417	      6.44787901	     -8.53704955	      5.23046464	      3.57208854	     36.97347540	    -16.14179661	     -2.21278776	    120.48455195	     43.70528493	      0.00000000	      0.00000000	    -12.08867198	     -6.40414072	      7.31183605	     23.91587640	     45.27974976	      0.00000000	      0.00000000
     14.20571429	     -4.12605527	     -4.00465731	      1.70791446	      1.08270634	      0.91872012	      0.45068965	      6.56892505	     -4.48952344	    -10.06169025	     44.78725065	     44.78725065	      5.92039293	    -13.07152354	    -16.48383804	     27.28677285	     -5.50658705	     -6.34532672	     28.14876216	     28.14876216	      8.63440278	    -16.87452106	      5.74110969	     -8.61593442	      5.09999652	      3.32643306	     34.61597922	    -16.14120244	     -2.36791539	    120.35765673	     43.73402105	      0.00000000	      0.00000000	    -10.69164207	     -6.48602287	      6.96660909	     24.47739432	     45.38115917	      0.00000000	      0.00000000
     14.21714286	     -4.06219014	     -3.77276434	      1.56130704	      1.08253745	      0.91992790	      0.44813153	      8.75756906	     -5.30881855	     -9.68963932	     49.06920168	     49.06920168	      3.85001674	    -14.72974523	    -15.46790408	     26.32056624	     -5.21496262	     -6.82545788	     27.83389040	     27.83389040	      9.14532940	    -16.54435437	      5.26381057	     -8.66605593	      4.95466262	      2.88268699	     32.27181022	    -15.98268597	     -2.19961959	    119.76211322	     43.74782453	      0.00000000	      0.00000000	     -9.34615449	     -6.63362015	      6.76411003	     25.07138390	     45.44494304	      0.00000000	      0.00000000
     14.22857143	     -3.95165744	     -3.68782624	      1.38599272	      1.08228305	      0.92107029	      0.44596817	     11.08447967	     -5.77099115	     -9.09370120	     53.46999548	     53.46999548	      3.57900808	    -15.37215988	     -9.37911697	     25.32572511	     -5.13947968	     -7.36335677	     27.51382641	     27.51382641	      9.27889413	    -16.19642597	      3.64195594	     -8.81409517	      4.91157026	      2.99049016	     29.39865238	    -15.97408582	     -3.17220895	    119.26804521	     43.84554207	      0.00000000	      0.00000000	     -7.79214980	     -6.79459024	      5.64512972	     26.12361325	     45.68204683	      0.00000000	      0.00000000
     14.24000000	     -3.77886550	     -3.44939877	      1.28012616	      1.08193579	      0.92220003	      0.44364499	     13.12363244	     -6.52221452	     -8.84350398	     57.11351770	     57.11351770	      1.90518826	    -16.45899678	     -8.63047091	     24.30157950	     -4.81973723	     -7.73025480	     27.25564244	     27.25564244	      9.81044299	    -15.92367734	      3.34118359	     -9.02144727	      4.77298485	      2.39178028	     26.98322099	    -15.62314569	     -2.68688177	    118.28013442	     43.85440317	      0.00000000	      0.00000000	     -6.24980398	     -7.04872526	      5.50523027	     26.71695307	     45.73240698	      0.00000000	      0.00000000
     14.25142857	     -3.77654047	     -3.30303252	      1.06537094	      1.08145028	      0.92313331	      0.44164274	     15.40837742	     -7.00440838	     -8.38465820	     60.48797637	     60.48797637	      0.85373580	    -17.36685447	     -7.13351516	     23.38346573	     -4.63643193	     -8.20570355	     26.84167674	     26.84167674	     10.30814828	    -15.51463853	      2.93331267	     -9.01481459	      4.67844951	      2.12366959	     24.25001138	    -15.61291503	     -2.52520068	    116.58811426	     43.89777783	      0.00000000	      0.00000000	     -4.75558008	     -7.33463828	      5.23604084	     27.48033614	     45.80126559	      0.00000000	      0.00000000
     14.26285714	     -3.62568306	     -3.33170377	      0.91128656	      1.08097085	      0.92426313	      0.43985175	     17.62328034	     -7.12376301	     -7.88454339	     63.77020654	     63.77020654	      1.97576923	    -17.10449373	     -0.23663480	     22.37690816	     -4.68037538	     -8.71128427	     26.50558283	     26.50558283	     10.41494355	    -15.05548745	      1.66502929	     -9.13089443	      4.83564772	      2.01598690	     21.61300247	    -15.25909387	     -3.65871671	    113.85148403	     44.05226917	      0.00000000	      0.00000000	     -3.14596712	     -7.55785029	      4.12929733	     28.73865147	     45.99882381	      0.00000000	      0.00000000
     14.27428571	     -3.44600685	     -3.22822589	      0.78920558	      1.08045930	      0.92536851	      0.43797600	     19.52759998	     -7.48698560	     -7.62708725	     66.17193474	     66.17193474	      1.32247630	    -17.46741507	      0.09365607	     21.33575450	     -4.47843018	     -8.93089066	     26.17452095	     26.17452095	     10.97751429	    -14.81811765	      1.40468606	     -9.41002629	      4.79648755	      1.51827387	     19.04982589	    -14.88863765	     -3.11180902	    112.50532791	     44.06994321	      0.00000000	      0.00000000	     -1.46462123	     -7.96806844	      3.94216701	     29.43491527	     46.05252510	      0.00000000	      0.00000000
     14.28571429	     -3.37319103	     -3.15207167	      0.55804084	      1.08003069	      0.92646468	      0.43633609	     21.52585750	     -7.67139061	     -7.21113302	     68.15327600	     68.15327600	      1.05327425	    -17.62640127	      0.57903030	     20.28937562	     -4.33818661	     -9.31811980	     25.64748315	     25.64748315	     11.39235116	    -14.51099750	      1.14960501	     -9.43367705	      4.84443764	      1.45109052	     16.22872896	    -14.98081232	     -2.99217571	    109.99161553	     44.13907248	      0.00000000	      0.00000000	      0.23261860	     -8.28639459	      3.68044792	     30.29402379	     46.11578972	      0.00000000	      0.00000000
     14.29714286	     -3.24133228	     -3.19923619	      0.34984231	      1.07954820	      0.92767649	      0.43487661	     23.40450523	     -7.61095715	     -6.84178246	     69.71297743	     69.71297743	      1.58609667	    -17.40015020	      2.68122132	     19.16995815	     -4.31294560	     -9.60441616	     25.05072139	     25.05072139	     11.57391914	    -14.29012445	      0.22787822	     -9.54370377	      4.95194730	      1.18191579	     14.17910727	    -14.34334379	     -4.07872118	    105.60529791	     44.33640946	      0.00000000	      0.00000000	      1.96588609	     -8.59122114	      2.87073946	     31.23776339	     46.24310096	      0.00000000	      0.00000000
     14.30857143	     -3.09681184	     -3.21675672	      0.09803733	      1.07915630	      0.92895520	      0.43349660	     25.10793812	     -7.57193689	     -6.53165788	     70.64677083	     70.64677083	      1.60565196	    -17.22614812	      2.69050969	     18.01016854	     -4.23596607	     -9.87757408	     24.43810323	     24.43810323	     11.94512930	    -14.10112804	      0.00705679	     -9.72363801	      5.07370926	      1.28470376	     11.60054031	    -14.57332940	     -3.97613641	    102.67799963	     44.42383470	      0.00000000	      0.00000000	      3.87767693	     -8.93392184	      2.58231334	     32.20024626	     46.30746186	      0.00000000	      0.00000000
     14.32000000	     -2.94829819	     -3.29190884	     -0.14892895	      1.07885650	      0.93025164	      0.43229740	     26.65899972	     -7.40702121	     -6.29259496	     71.03445778	     71.03445778	      1.70803819	    -16.98711301	      2.55344323	     16.81125400	     -4.21045242	    -10.10946095	     23.75477455	     23.75477455	     12.17546245	    -13.98606311	     -0.45544011	     -9.84184866	      5.22709753	      1.05308939	      9.63689177	    -13.97061848	     -4.56078845	     98.30081222	     44.59107508	      0.00000000	      0.00000000	      5.63993307	     -9.37262866	      2.23972063	     33.04438085	     46.36476927	      0.00000000	      0.00000000
     14.33142857	     -2.78387270	     -3.33346474	     -0.46491174	      1.07864526	      0.93156856	      0.43122597	     28.09248821	     -7.24204061	     -6.05583908	     70.93500771	     70.93500771	      1.73425873	    -16.64159160	      2.29726276	     15.53295699	     -4.14110328	    -10.40380286	     22.98675072	     22.98675072	     12.49506672	    -13.82923153	     -0.60812895	    -10.03842898	      5.34626600	      1.29443631	      7.27837326	    -14.14708538	     -4.61052064	     94.78258712	     44.70165676	      0.00000000	      0.00000000	      7.56506775	     -9.68522583	      2.05934818	     34.08868623	     46.41124082	      0.00000000	      0.00000000
